# xmcd
#
# Track frame offsets: 
#        150
#        20746
#        43663
#        79184
#        108503
#        121781
#        148167
#        173979
#        197395
#
# Disc length: 2974 seconds
#
# Revision: 0
# Processed by: cddbd v1.5.2PL0 Copyright (c) Steve Scherf et al.
# Submitted via: ExactAudioCopy v1.0b4
#
DISCID=770b9c09
DTITLE=Backtrack Blues Band - Make My Home In Florida
DYEAR=2017
DGENRE=Blues
TTITLE0=Checkin' On My Baby
TTITLE1=Woke Up This Morning
TTITLE2=Make My Home In Florida
TTITLE3=T-Bone Shuffle
TTITLE4=Nobody But You
TTITLE5=Your Funeral And My Trial
TTITLE6=Heavy Built Woman
TTITLE7=Shoot My Rooster
TTITLE8=Tell Your Daddy
EXTD=
EXTT0=
EXTT1=
EXTT2=
EXTT3=
EXTT4=
EXTT5=
EXTT6=
EXTT7=
EXTT8=
PLAYORDER=
